<svg xmlns="http://www.w3.org/2000/svg" width="19" height="19" viewBox="0 0 19 19" fill="none">
  <path d="M15.275 18.8424C14.599 19.3395 10.2618 16.1879 9.43108 16.181C8.6004 16.1741 4.21433 19.2532 3.54626 18.7449C2.87818 18.2365 4.44879 13.0151 4.19849 12.1996C3.9482 11.384 -0.251198 8.04011 0.0118547 7.22877C0.274966 6.41742 5.58289 6.34206 6.25885 5.84488C6.9348 5.34775 8.72555 0.202002 9.55629 0.208869C10.3869 0.215796 12.0968 5.39063 12.7648 5.89898C13.4329 6.40727 18.739 6.57089 18.9894 7.38647C19.2397 8.20206 14.9885 11.4757 14.7254 12.287C14.4623 13.0984 15.9509 18.3452 15.275 18.8424Z" fill="#F8B84E"/>
</svg>